<svg width="167" height="188" viewBox="0 0 167 188" fill="none" xmlns="http://www.w3.org/2000/svg">
<path d="M62.1873 8.86874C62.603 8.59897 70.2031 7.35477 70.5197 7.1263C73.8422 4.73147 72.0502 1.38147 67.2412 0.596959C63.1342 -0.0746925 59.1126 0.28866 55.0799 0.960312C53.1393 1.28237 51.0665 1.63747 49.1286 1.50534C45.1785 1.23558 41.2752 0.665776 37.3609 0.184059C35.1946 -0.0829506 32.9236 -0.198563 31.294 0.836442C29.1882 2.17699 29.3093 2.26508 27.4403 3.75978C26.5484 4.47272 25.9153 6.02247 26.3998 6.85103C27.5228 8.76689 32.2409 10.2423 46.0539 10.2175C54.656 9.87346 54.3229 10.2175 62.1873 8.86874Z" fill="#131313"/>
<path d="M88.2849 45.3146C90.8807 41.0507 93.1599 39.1596 92.5516 34.3562C91.8084 28.5068 88.9841 24.2814 82.997 21.1902C76.9136 18.0494 74.5849 17.8732 69.9246 19.6211C69.5502 19.8303 66.503 21.1544 65.8148 21.4709C65.8451 22.0793 65.8534 22.1784 65.7157 21.5177C65.7378 21.5067 65.7735 21.4902 65.8148 21.4709C65.7488 20.1221 67.3205 10.2345 67.3371 10.218C58.3826 12.3789 48.8666 12.5082 42.6841 12.4835C36.5016 12.4587 33.8342 12.1669 29.463 11.008C29.463 11.008 32.2514 22.2554 31.7394 23.6511C29.6859 21.2149 26.0827 20.1056 23.9301 18.9495C21.3673 17.5732 18.1274 17.9668 15.1105 18.6852C11.0393 19.6569 10.3319 20.1331 7.52138 23.1033C5.86978 24.8457 4.5595 27.8599 3.81078 30.6043C1.7848 36.5225 2.52803 38.3448 4.42187 41.1498C6.39829 43.8887 11.2237 51.4806 11.2237 51.4806C10.23 54.5333 7.89575 59.5707 7.82418 62.6784C7.70306 67.9388 8.04164 73.3092 9.0326 78.4705C10.5989 86.6239 13.6736 94.3231 17.943 101.505C19.5065 104.134 20.9407 106.837 22.4299 109.51C24.7972 113.762 26.9828 118.131 29.5923 122.23C31.1228 124.636 33.0883 126.901 35.2821 128.715C38.7588 131.592 43.0447 132.293 47.5205 132.756C53.3342 133.359 58.7955 133.02 63.7503 129.747C65.0028 128.919 66.2608 127.713 66.8856 126.383C70.8109 118.021 74.3894 109.493 78.4248 101.183C81.3482 95.1627 84.1256 89.1509 85.9562 82.6711C87.2059 78.2475 87.9519 73.813 88.1583 69.2628C88.3565 64.8916 86.9306 60.8369 85.4469 56.8235C85.1028 55.8958 83.2861 52.444 83.8696 51.6375C85.5846 49.2536 86.7682 47.8223 88.2932 45.3173L88.2849 45.3146ZM15.7491 44.1364C15.7491 44.1364 10.6429 38.9229 11.1274 35.5784C11.5788 32.4789 15.0389 26.8689 18.2651 25.6385C21.7142 25.5752 24.2687 27.0203 24.2687 27.0203C25.89 28.7077 27.4976 31.1879 27.4976 31.1879C24.0705 34.7553 19.3166 40.4231 15.7491 44.1364ZM78.9093 44.1364C75.8896 39.7459 72.9388 35.4545 69.9218 31.0695C74.3784 25.9826 76.2392 26.6074 79.4874 28.0305C80.4811 28.4655 84.6899 33.3405 85.0836 34.4746C86.793 39.4073 82.7273 40.7286 78.9093 44.1364Z" fill="#131313"/>
<path d="M157.807 55.0865C156.967 60.8423 154.506 66.0531 149.849 70.4023C147.528 72.5714 145.378 75.0406 141.624 75.7755C140.787 75.9379 140.016 76.3123 139.19 76.5298C137.737 76.9096 136.278 77.5015 134.797 77.551C133.624 77.5895 132.449 77.6061 131.276 77.6143C130.101 77.6061 128.928 77.5895 127.756 77.551C126.278 77.5015 124.819 76.9096 123.362 76.5298C122.537 76.3123 121.766 75.9407 120.929 75.7755C117.174 75.0406 115.025 72.5714 112.704 70.4023C108.049 66.0531 105.586 60.8395 104.746 55.0865C104.281 51.8934 104.997 48.8324 106.277 45.843C107.257 43.5528 109.409 42.0526 111.567 40.5634C112.908 39.6412 114.273 38.7411 115.589 37.7942C117.524 36.3958 117.507 34.3754 117.942 32.5091C118.16 31.5731 118.19 30.6042 118.427 29.671C119.6 24.9888 118.642 20.5707 116.082 16.3509C115.804 15.8912 115.201 15.5691 114.895 15.1177C114.226 14.1212 113.376 13.1302 113.106 12.0484C112.688 10.3831 114.488 8.77001 117.406 8.35161C120.081 7.96898 122.834 7.91668 125.556 7.82309C127.458 7.75703 129.369 7.78456 131.279 7.79832C133.189 7.78456 135.097 7.75703 137.002 7.82309C139.727 7.91668 142.48 7.96623 145.153 8.35161C148.07 8.77001 149.868 10.3831 149.452 12.0484C149.183 13.1302 148.332 14.1212 147.663 15.1177C147.358 15.5719 146.757 15.8912 146.477 16.3509C143.917 20.5707 142.959 24.9888 144.131 29.671C144.365 30.6042 144.398 31.5731 144.616 32.5091C145.051 34.3754 145.037 36.3958 146.969 37.7942C148.282 38.7411 149.651 39.6412 150.991 40.5634C153.149 42.0526 155.299 43.55 156.282 45.843C157.562 48.8324 158.277 51.8934 157.812 55.0865H157.807Z" fill="#131313"/>
<path d="M163.131 106.74C160.783 112.334 157.997 117.691 153.665 122.114C151.864 123.953 150.15 125.885 148.25 127.617C147.267 128.511 146.045 129.326 144.785 129.709C142.77 130.323 140.645 130.642 138.544 130.912C135.786 131.267 133.003 131.663 130.231 131.663C126.298 131.66 119.058 131.085 116.187 128.96C112.933 126.554 107.849 121.313 106.151 119.345C102.696 115.34 100.932 112.95 98.6579 106.801C98.0276 105.092 98.6029 103.701 99.6929 102.427C100.868 101.053 102.308 100.558 104.133 101.07C104.964 101.304 105.875 101.296 106.756 101.32C106.825 101.32 106.894 101.326 106.963 101.326C104.94 99.1981 102.55 97.3758 100.447 95.3003C99.5085 94.3699 98.5203 93.3321 97.9973 92.1292C96.8632 89.5197 98.2726 87.5323 101.022 87.5818C101.76 87.5956 118.981 87.2928 130.754 87.0505C142.53 87.29 159.748 87.5956 160.486 87.5818C163.233 87.5323 164.645 89.5197 163.511 92.1292C162.988 93.3349 162 94.3726 161.061 95.3003C159.013 97.3208 156.698 99.099 154.711 101.152C156.249 101.097 157.788 100.974 159.324 101.026C162.724 101.136 164.439 103.622 163.131 106.74Z" fill="#131313"/>
<path d="M0 180.297C2.2258 179.564 2.43279 178.671 2.43279 166.595C2.43279 154.519 2.2258 153.544 0 152.811V152.729C1.1129 152.77 1.89704 152.811 3.83305 152.811C5.64729 152.811 6.51179 152.729 9.35614 152.729C14.7136 152.729 16.9394 155.089 16.9394 159.113C16.9394 163.707 13.5179 166.677 8.98598 166.677C7.37874 166.677 6.22444 166.677 5.27713 166.595C5.27713 178.671 5.48413 179.567 7.70993 180.297V180.379H0V180.297ZM8.61339 164.726C11.8693 164.726 13.9295 162.734 13.9295 159.603C13.9295 156.268 12.2808 154.764 8.572 154.764C7.87065 154.764 6.71635 154.846 5.72765 154.928C5.3575 156.838 5.3161 159.481 5.2747 164.483C6.63356 164.646 7.74645 164.728 8.61339 164.728V164.726Z" fill="#131313"/>
<path d="M18.1331 180.297C20.3589 179.564 20.5658 178.671 20.5658 166.595C20.5658 154.519 20.3589 153.544 18.1331 152.811V152.729C19.246 152.77 20.0301 152.811 21.9661 152.811C23.9021 152.811 24.9322 152.729 28.1077 152.729C33.5066 152.729 35.7324 155.007 35.7324 158.909C35.7324 162.446 33.341 165.009 30.0462 165.821C37.8779 178.385 39.1125 179.442 41.4211 180.011V180.093C40.2254 180.215 39.0711 180.499 37.5467 180.499C36.3924 180.499 35.898 179.848 35.0335 178.709C33.2193 176.107 30.336 171.064 27.2432 166.064C25.636 166.064 24.4403 166.023 23.4102 165.982V166.592C23.4102 178.668 23.6172 179.564 25.843 180.295V180.376H18.1355V180.295L18.1331 180.297ZM27.4478 164.075C30.5795 164.075 32.6007 162.244 32.6007 159.44C32.6007 156.227 30.9521 154.764 27.2846 154.764C26.2545 154.764 25.3072 154.764 23.7828 154.887C23.5344 156.879 23.454 159.603 23.4126 163.832C25.0613 163.995 26.5029 164.077 27.4502 164.077L27.4478 164.075Z" fill="#131313"/>
<path d="M40.179 166.595C40.179 157.691 46.3206 152.282 54.1912 152.282C62.0619 152.282 68.1621 157.65 68.1621 166.554C68.1621 175.458 62.0205 180.866 54.1912 180.866C46.362 180.866 40.179 175.499 40.179 166.595ZM64.8673 167.246C64.8673 159.072 60.1283 154.478 53.6165 154.478C47.9303 154.478 43.4787 158.748 43.4787 165.903C43.4787 174.077 48.2176 178.67 54.7708 178.67C60.4985 178.67 64.8673 174.442 64.8673 167.243V167.246Z" fill="#131313"/>
<path d="M68.9026 180.297C71.0456 179.526 71.2112 178.63 72.4044 166.758C72.9402 161.554 73.4759 158.178 73.8461 151.835H75.7431C77.7205 155.942 84.0692 168.995 87.0353 174.973C89.9624 168.954 96.3086 155.862 98.0815 151.835H99.7301C100.307 157.936 100.595 161.268 101.172 166.677C102.492 178.55 102.779 179.526 104.881 180.297V180.379H97.4215V180.297C98.7414 179.932 99.1944 179.564 99.1944 177.207C99.1944 175.458 98.907 172.614 98.4516 167.815C98.0815 163.342 97.7917 160.211 97.5871 158.015C94.3312 164.521 88.8081 176.15 86.7479 180.826H86.4995C84.6049 176.028 79.0818 164.642 75.8259 158.097C75.6189 160.293 75.373 163.423 74.9614 167.976C74.5499 172.45 74.3015 175.213 74.3015 176.962C74.3015 179.524 74.8372 179.93 76.2375 180.297V180.379H68.9026V180.297Z" fill="#131313"/>
<path d="M105.786 180.297C107.971 179.485 108.219 178.548 108.219 166.595C108.219 154.642 107.971 153.623 105.786 152.811V152.77C117.078 152.77 119.716 152.729 120.334 152.487H120.417L120.583 156.023H120.5C118.81 155.211 117.244 154.925 114.772 154.925C113.494 154.925 112.422 154.925 111.475 154.966C111.268 156.593 111.146 159.154 111.105 163.26H113.248C115.145 163.26 117.409 163.178 120.005 162.895L120.13 165.701C116.504 165.377 113.701 165.377 111.475 165.377C111.351 165.377 111.226 165.418 111.063 165.418V166.597C111.063 172.698 111.146 175.989 111.433 177.983C112.422 178.024 113.576 178.065 114.935 178.065C117.573 178.065 119.221 177.7 121.036 176.804H121.118L120.953 180.626H120.87C120.047 180.302 113.781 180.343 109.083 180.381H105.786V180.3V180.297Z" fill="#131313"/>
<path d="M123.3 175.581H123.383C125.032 177.654 126.515 178.548 128.575 178.548C131.748 178.548 133.891 176.638 133.891 173.709C133.891 172.042 132.861 170.293 130.842 168.26L127.299 164.764C125.239 162.772 124.209 160.819 124.209 158.868C124.209 154.721 127.713 152.362 132.121 152.362C133.316 152.362 134.717 152.604 135.459 152.768L136.119 157.403H136.037C134.553 155.288 133.316 154.476 131.668 154.476C128.782 154.476 127.012 155.899 127.012 158.217C127.012 159.599 127.917 160.983 129.69 162.732L133.482 166.391C135.708 168.587 136.821 170.865 136.821 173.181C136.821 178.265 133.195 180.826 128.249 180.826C126.89 180.826 124.786 180.502 123.88 180.379L123.303 175.581H123.3Z" fill="#131313"/>
<path d="M137.23 180.297C138.796 179.646 139.249 178.995 144.896 166.432C148.235 159.072 149.552 156.103 150.129 154.721C149.387 153.868 148.564 153.299 147.616 152.811V152.729H152.728C152.893 153.541 153.264 154.519 158.662 166.432C164.349 178.995 164.68 179.483 166.328 180.297V180.379H158.869V180.297C159.654 179.932 160.148 179.646 160.148 178.63C160.148 177.167 159.159 174.36 156.48 168.262C155.039 168.221 153.473 168.221 151.7 168.221C149.681 168.221 147.95 168.221 146.425 168.262C143.871 174.118 142.962 176.965 142.962 178.469C142.962 179.608 143.498 179.973 144.241 180.3V180.381H137.235V180.3L137.23 180.297ZM151.698 166.352H155.613C155.572 166.271 155.531 166.189 155.531 166.107C153.634 162.001 152.645 159.358 151.452 156.756C150.587 158.952 149.35 161.758 147.373 166.107C147.331 166.189 147.29 166.271 147.248 166.311C148.568 166.352 150.051 166.352 151.7 166.352H151.698Z" fill="#131313"/>
</svg>
