<svg width="187" height="208" viewBox="0 0 187 208" fill="none" xmlns="http://www.w3.org/2000/svg">
<rect width="187" height="208" fill="#F2F2F2"/>
<path d="M72.1873 18.8687C72.603 18.599 80.2031 17.3548 80.5197 17.1263C83.8422 14.7315 82.0502 11.3815 77.2412 10.597C73.1342 9.92531 69.1126 10.2887 65.0799 10.9603C63.1393 11.2824 61.0665 11.6375 59.1286 11.5053C55.1785 11.2356 51.2752 10.6658 47.3609 10.1841C45.1946 9.91705 42.9236 9.80144 41.294 10.8364C39.1882 12.177 39.3093 12.2651 37.4403 13.7598C36.5484 14.4727 35.9153 16.0225 36.3998 16.851C37.5228 18.7669 42.2409 20.2423 56.0539 20.2175C64.656 19.8735 64.3229 20.2175 72.1873 18.8687Z" fill="#131313"/>
<path d="M98.2849 55.3146C100.881 51.0507 103.16 49.1596 102.552 44.3562C101.808 38.5068 98.9841 34.2814 92.997 31.1902C86.9136 28.0494 84.5849 27.8732 79.9246 29.6211C79.5502 29.8303 76.503 31.1544 75.8148 31.4709C75.8451 32.0793 75.8534 32.1784 75.7157 31.5177C75.7378 31.5067 75.7735 31.4902 75.8148 31.4709C75.7488 30.1221 77.3205 20.2345 77.3371 20.218C68.3826 22.3789 58.8666 22.5082 52.6841 22.4835C46.5016 22.4587 43.8342 22.1669 39.463 21.008C39.463 21.008 42.2514 32.2554 41.7394 33.6511C39.6859 31.2149 36.0827 30.1056 33.9301 28.9495C31.3673 27.5732 28.1274 27.9668 25.1105 28.6852C21.0393 29.6569 20.3319 30.1331 17.5214 33.1033C15.8698 34.8457 14.5595 37.8599 13.8108 40.6043C11.7848 46.5225 12.528 48.3448 14.4219 51.1498C16.3983 53.8887 21.2237 61.4806 21.2237 61.4806C20.23 64.5333 17.8957 69.5707 17.8242 72.6784C17.7031 77.9388 18.0416 83.3092 19.0326 88.4705C20.5989 96.6239 23.6736 104.323 27.943 111.505C29.5065 114.134 30.9407 116.837 32.4299 119.51C34.7972 123.762 36.9828 128.131 39.5923 132.23C41.1228 134.636 43.0883 136.901 45.2821 138.715C48.7588 141.592 53.0447 142.293 57.5205 142.756C63.3342 143.359 68.7955 143.02 73.7503 139.747C75.0028 138.919 76.2608 137.713 76.8856 136.383C80.8109 128.021 84.3894 119.493 88.4248 111.183C91.3482 105.163 94.1256 99.1509 95.9562 92.6711C97.2059 88.2475 97.9519 83.813 98.1583 79.2628C98.3565 74.8916 96.9306 70.8369 95.4469 66.8235C95.1028 65.8958 93.2861 62.444 93.8696 61.6375C95.5846 59.2536 96.7682 57.8223 98.2932 55.3173L98.2849 55.3146ZM25.7491 54.1364C25.7491 54.1364 20.6429 48.9229 21.1274 45.5784C21.5788 42.4789 25.0389 36.8689 28.2651 35.6385C31.7142 35.5752 34.2687 37.0203 34.2687 37.0203C35.89 38.7077 37.4976 41.1879 37.4976 41.1879C34.0705 44.7553 29.3166 50.4231 25.7491 54.1364ZM88.9093 54.1364C85.8896 49.7459 82.9388 45.4545 79.9218 41.0695C84.3784 35.9826 86.2392 36.6074 89.4874 38.0305C90.4811 38.4655 94.6899 43.3405 95.0836 44.4746C96.793 49.4073 92.7273 50.7286 88.9093 54.1364Z" fill="#131313"/>
<path d="M167.807 65.0865C166.967 70.8423 164.506 76.0531 159.849 80.4023C157.528 82.5714 155.378 85.0406 151.624 85.7755C150.787 85.9379 150.016 86.3123 149.19 86.5298C147.737 86.9096 146.278 87.5015 144.797 87.551C143.624 87.5895 142.449 87.6061 141.276 87.6143C140.101 87.6061 138.928 87.5895 137.756 87.551C136.278 87.5015 134.819 86.9096 133.362 86.5298C132.537 86.3123 131.766 85.9407 130.929 85.7755C127.174 85.0406 125.025 82.5714 122.704 80.4023C118.049 76.0531 115.586 70.8395 114.746 65.0865C114.281 61.8934 114.997 58.8324 116.277 55.843C117.257 53.5528 119.409 52.0526 121.567 50.5634C122.908 49.6412 124.273 48.7411 125.589 47.7942C127.524 46.3958 127.507 44.3754 127.942 42.509C128.16 41.5731 128.19 40.6042 128.427 39.671C129.6 34.9888 128.642 30.5707 126.082 26.3509C125.804 25.8912 125.201 25.5691 124.895 25.1177C124.226 24.1212 123.376 23.1302 123.106 22.0484C122.688 20.3831 124.488 18.77 127.406 18.3516C130.081 17.969 132.834 17.9167 135.556 17.8231C137.458 17.757 139.369 17.7846 141.279 17.7983C143.189 17.7846 145.097 17.757 147.002 17.8231C149.727 17.9167 152.48 17.9662 155.153 18.3516C158.07 18.77 159.868 20.3831 159.452 22.0484C159.183 23.1302 158.332 24.1212 157.663 25.1177C157.358 25.5719 156.757 25.8912 156.477 26.3509C153.917 30.5707 152.959 34.9888 154.131 39.671C154.365 40.6042 154.398 41.5731 154.616 42.509C155.051 44.3754 155.037 46.3958 156.969 47.7942C158.282 48.7411 159.651 49.6412 160.991 50.5634C163.149 52.0526 165.299 53.55 166.282 55.843C167.562 58.8324 168.277 61.8934 167.812 65.0865H167.807Z" fill="#131313"/>
<path d="M173.131 116.74C170.783 122.334 167.997 127.691 163.665 132.114C161.864 133.953 160.15 135.885 158.25 137.617C157.267 138.511 156.045 139.326 154.785 139.709C152.77 140.323 150.645 140.642 148.544 140.912C145.786 141.267 143.003 141.663 140.231 141.663C136.298 141.66 129.058 141.085 126.187 138.96C122.933 136.554 117.849 131.313 116.151 129.345C112.696 125.34 110.932 122.95 108.658 116.801C108.028 115.092 108.603 113.701 109.693 112.427C110.868 111.053 112.308 110.558 114.133 111.07C114.964 111.304 115.875 111.296 116.756 111.32C116.825 111.32 116.894 111.326 116.963 111.326C114.94 109.198 112.55 107.376 110.447 105.3C109.509 104.37 108.52 103.332 107.997 102.129C106.863 99.5197 108.273 97.5323 111.022 97.5818C111.76 97.5956 128.981 97.2928 140.754 97.0505C152.53 97.29 169.748 97.5956 170.486 97.5818C173.233 97.5323 174.645 99.5197 173.511 102.129C172.988 103.335 172 104.373 171.061 105.3C169.013 107.321 166.698 109.099 164.711 111.152C166.249 111.097 167.788 110.974 169.324 111.026C172.724 111.136 174.439 113.622 173.131 116.74Z" fill="#131313"/>
<path d="M10 190.297C12.2258 189.564 12.4328 188.67 12.4328 176.595C12.4328 164.519 12.2258 163.543 10 162.811V162.729C11.1129 162.77 11.897 162.811 13.833 162.811C15.6473 162.811 16.5118 162.729 19.3561 162.729C24.7136 162.729 26.9394 165.088 26.9394 169.113C26.9394 173.707 23.5179 176.676 18.986 176.676C17.3787 176.676 16.2244 176.676 15.2771 176.595C15.2771 188.67 15.4841 189.566 17.7099 190.297V190.379H10V190.297ZM18.6134 174.725C21.8693 174.725 23.9295 172.733 23.9295 169.603C23.9295 166.268 22.2808 164.764 18.572 164.764C17.8707 164.764 16.7164 164.846 15.7277 164.927C15.3575 166.837 15.3161 169.48 15.2747 174.483C16.6336 174.646 17.7465 174.728 18.6134 174.728V174.725Z" fill="#131313"/>
<path d="M28.1328 190.297C30.3586 189.564 30.5656 188.67 30.5656 176.595C30.5656 164.519 30.3586 163.543 28.1328 162.811V162.729C29.2457 162.77 30.0299 162.811 31.9659 162.811C33.9019 162.811 34.932 162.729 38.1075 162.729C43.5064 162.729 45.7322 165.007 45.7322 168.908C45.7322 172.445 43.3408 175.009 40.0459 175.821C47.8776 188.384 49.1123 189.441 51.4209 190.011V190.093C50.2252 190.215 49.0709 190.499 47.5464 190.499C46.3921 190.499 45.8978 189.848 45.0333 188.709C43.219 186.107 40.3357 181.063 37.243 176.064C35.6357 176.064 34.44 176.023 33.4099 175.982V176.592C33.4099 188.668 33.6169 189.564 35.8427 190.294V190.376H28.1352V190.294L28.1328 190.297ZM37.4476 174.074C40.5793 174.074 42.6005 172.243 42.6005 169.439C42.6005 166.227 40.9518 164.764 37.2844 164.764C36.2543 164.764 35.307 164.764 33.7825 164.886C33.5341 166.878 33.4538 169.603 33.4124 173.831C35.061 173.995 36.5027 174.077 37.45 174.077L37.4476 174.074Z" fill="#131313"/>
<path d="M50.1787 176.595C50.1787 167.69 56.3204 162.282 64.191 162.282C72.0617 162.282 78.1619 167.65 78.1619 176.554C78.1619 185.458 72.0203 190.866 64.191 190.866C56.3617 190.866 50.1787 185.499 50.1787 176.595ZM74.867 177.246C74.867 169.072 70.1281 164.478 63.6163 164.478C57.93 164.478 53.4784 168.748 53.4784 175.903C53.4784 184.076 58.2174 188.67 64.7706 188.67C70.4982 188.67 74.867 184.442 74.867 177.243V177.246Z" fill="#131313"/>
<path d="M78.9023 190.297C81.0453 189.526 81.2109 188.629 82.4042 176.758C82.9399 171.554 83.4757 168.178 83.8458 161.835H85.7429C87.7203 165.941 94.0689 178.995 97.035 184.973C99.9622 178.954 106.308 165.862 108.081 161.835H109.73C110.307 167.936 110.594 171.268 111.172 176.676C112.491 188.55 112.779 189.526 114.88 190.297V190.379H107.421V190.297C108.741 189.932 109.194 189.564 109.194 187.207C109.194 185.458 108.907 182.613 108.451 177.815C108.081 173.341 107.791 170.211 107.587 168.015C104.331 174.521 98.8079 186.15 96.7477 190.825H96.4993C94.6047 186.027 89.0816 174.641 85.8257 168.096C85.6187 170.293 85.3727 173.423 84.9612 177.976C84.5496 182.45 84.3012 185.213 84.3012 186.962C84.3012 189.523 84.837 189.929 86.2372 190.297V190.379H78.9023V190.297Z" fill="#131313"/>
<path d="M115.786 190.297C117.97 189.485 118.219 188.548 118.219 176.595C118.219 164.641 117.97 163.623 115.786 162.811V162.77C127.078 162.77 129.715 162.729 130.334 162.486H130.417L130.582 166.023H130.5C128.809 165.211 127.244 164.925 124.772 164.925C123.493 164.925 122.422 164.925 121.475 164.966C121.268 166.592 121.146 169.154 121.104 173.26H123.247C125.144 173.26 127.409 173.178 130.005 172.895L130.129 175.701C126.503 175.377 123.7 175.377 121.475 175.377C121.35 175.377 121.226 175.417 121.063 175.417V176.597C121.063 182.697 121.146 185.989 121.433 187.983C122.422 188.024 123.576 188.065 124.935 188.065C127.572 188.065 129.221 187.7 131.035 186.803H131.118L130.952 190.626H130.87C130.047 190.302 123.781 190.343 119.083 190.381H115.786V190.299V190.297Z" fill="#131313"/>
<path d="M133.3 185.581H133.383C135.031 187.654 136.515 188.548 138.575 188.548C141.748 188.548 143.891 186.638 143.891 183.709C143.891 182.042 142.861 180.292 140.842 178.26L137.299 174.764C135.238 172.772 134.208 170.819 134.208 168.868C134.208 164.721 137.713 162.361 142.12 162.361C143.316 162.361 144.716 162.604 145.459 162.767L146.119 167.402H146.036C144.553 165.288 143.316 164.476 141.667 164.476C138.782 164.476 137.011 165.898 137.011 168.217C137.011 169.598 137.917 170.982 139.69 172.731L143.482 176.39C145.708 178.587 146.82 180.864 146.82 183.18C146.82 188.264 143.194 190.826 138.248 190.826C136.89 190.826 134.786 190.501 133.88 190.379L133.302 185.581H133.3Z" fill="#131313"/>
<path d="M147.23 190.297C148.796 189.646 149.249 188.995 154.896 176.431C158.235 169.072 159.552 166.102 160.129 164.721C159.386 163.868 158.563 163.298 157.616 162.811V162.729H162.728C162.893 163.541 163.263 164.519 168.662 176.431C174.348 188.995 174.68 189.482 176.328 190.297V190.378H168.869V190.297C169.653 189.932 170.148 189.646 170.148 188.629C170.148 187.166 169.159 184.36 166.48 178.262C165.039 178.221 163.473 178.221 161.7 178.221C159.681 178.221 157.95 178.221 156.425 178.262C153.871 184.117 152.962 186.964 152.962 188.468C152.962 189.607 153.498 189.972 154.241 190.299V190.381H147.235V190.299L147.23 190.297ZM161.697 176.352H165.613C165.572 176.27 165.53 176.188 165.53 176.107C163.633 172.001 162.645 169.358 161.451 166.756C160.587 168.952 159.35 171.758 157.372 176.107C157.331 176.188 157.29 176.27 157.248 176.311C158.568 176.352 160.051 176.352 161.7 176.352H161.697Z" fill="#131313"/>
</svg>
